<svg width="172.52" height="50" version="1.1" viewBox="0 0 45.646 13.229" xmlns="http://www.w3.org/2000/svg">
 <g transform="translate(-339.96 -84.22)">
  <g>
   <g transform="matrix(.029426 0 0 .029426 339.96 83.417)" stroke-width="8.9914">
    <path d="m39.385 83h393.85c21.662 0 39.385 17.723 39.385 39.385v47.262c0 21.662-17.723 39.385-39.385 39.385h-393.85c-21.662-2e-3 -39.385-17.725-39.385-39.386v-47.262c0-21.661 17.723-39.384 39.385-39.384z" fill="#a86a3f"/>
    <path d="m125.64 125.14 246.55-65.378c8.271-2.363 16.935 2.757 19.298 11.028l40.96 151.24c2.363 8.271-2.757 16.935-11.028 19.298l-320.98 85.464c-8.271 2.363-16.935-2.757-19.298-11.028l-29.933-111.06z" fill="#3db39e"/>
    <path d="m389.51 217.3-53.169 14.178c-4.332 1.182-8.665-1.182-9.452-5.514-1.182-4.332 1.182-8.665 5.514-9.452l45.686-12.209-24.418-91.372-45.686 12.209c-4.332 1.182-8.665-1.182-9.452-5.514-1.182-4.332 1.182-8.665 5.514-9.452l53.169-14.178c4.332-1.182 8.665 1.182 9.452 5.514l28.357 106.34c1.18 4.332-1.183 8.664-5.515 9.452zm-220.55 59.471-53.169 14.178c-4.332 1.182-8.665-1.182-9.452-5.514l-28.357-106.34c-1.182-4.332 1.182-8.665 5.514-9.452l53.169-14.178c4.332-1.182 8.665 1.182 9.452 5.514 1.182 4.332-1.182 8.665-5.514 9.452l-45.686 12.209 24.418 91.372 45.686-12.209c4.332-1.182 8.665 1.182 9.452 5.514 1.182 3.938-1.181 8.27-5.513 9.452z" fill="#78cabb"/>
    <path d="m3.151 180.28c70.104-40.173 259.15-150.84 259.15-150.84 7.483-4.332 17.329-1.969 21.662 5.514l78.769 135.48c4.332 7.483 1.575 16.935-5.908 21.268l-288.3 165.42c-7.483 4.332-17.329 1.969-21.662-5.514 0 0-22.055-44.898-44.111-82.708 1e-3 -88.614 0.395-59.47 0.395-88.614z" fill="#5abeac"/>
    <path d="m322.56 166.1-55.138-95.311c-2.363-3.938-7.089-5.12-10.634-2.757l-47.655 27.569c-3.938 2.363-5.12 7.089-2.757 10.634 2.363 3.938 7.089 5.12 10.634 2.757l40.96-23.631 47.262 81.92-40.96 23.631c-3.938 2.363-5.12 7.089-2.757 10.634 2.363 3.938 7.089 5.12 10.634 2.757l47.655-27.569c3.544-1.969 5.119-6.695 2.756-10.634zm-208.74 111.46-40.96 23.631-47.262-81.921 40.96-23.631c3.938-2.363 5.12-7.089 2.757-10.634-2.363-3.938-7.089-5.12-10.634-2.757l-47.655 27.569c-3.938 2.363-5.12 7.089-2.757 10.634l55.138 95.311c2.363 3.938 7.089 5.12 10.634 2.757l47.655-27.569c3.938-2.363 5.12-7.089 2.757-10.634-1.969-3.544-6.695-5.12-10.633-2.756zm20.086-139.03c-30.326 17.329-40.566 55.926-23.237 86.252 17.723 30.326 55.926 40.566 86.252 23.237s40.566-55.926 23.237-86.252c-17.723-29.933-55.926-40.566-86.252-23.237zm188.65 27.569-55.138-95.311c-2.363-3.938-7.089-5.12-10.634-2.757l-47.655 27.569c-3.938 2.363-5.12 7.089-2.757 10.634 2.363 3.938 7.089 5.12 10.634 2.757l40.96-23.631 47.262 81.92-40.96 23.631c-3.938 2.363-5.12 7.089-2.757 10.634 2.363 3.938 7.089 5.12 10.634 2.757l47.655-27.569c3.544-1.969 5.119-6.695 2.756-10.634zm-208.74 111.46-40.96 23.631-47.262-81.921 40.96-23.631c3.938-2.363 5.12-7.089 2.757-10.634-2.363-3.938-7.089-5.12-10.634-2.757l-47.655 27.569c-3.938 2.363-5.12 7.089-2.757 10.634l55.138 95.311c2.363 3.938 7.089 5.12 10.634 2.757l47.655-27.569c3.938-2.363 5.12-7.089 2.757-10.634-1.969-3.544-6.695-5.12-10.633-2.756zm20.086-139.03c-30.326 17.329-40.566 55.926-23.237 86.252 17.723 30.326 55.926 40.566 86.252 23.237s40.566-55.926 23.237-86.252c-17.723-29.933-55.926-40.566-86.252-23.237z" fill="#8cd2c5"/>
    <path d="m448.98 476.85h-409.6c-21.662 0-39.385-17.723-39.385-39.385v-283.57h448.98c21.662 0 39.385 17.723 39.385 39.385v244.18c-1e-3 21.661-17.724 39.384-39.385 39.384zm-417.48-322.95h-31.508v-31.508c0 17.329 14.178 31.508 31.508 31.508z" fill="#c47e4d"/>
    <path d="m488.37 378.38h-63.015c-30.326 0-55.138-24.812-55.138-55.138s24.812-55.138 55.138-55.138h63.015c8.665 0 15.754 7.089 15.754 15.754v78.769c0 8.664-7.089 15.753-15.754 15.753z" fill="#a86a3f"/>
    <path d="m425.35 291.74c17.329 0 31.508 14.178 31.508 31.508s-14.178 31.508-31.508 31.508c-17.329 0-31.508-14.178-31.508-31.508s14.179-31.508 31.508-31.508z" fill="#efc75e"/>
    <path d="m433.23 346.88c-17.329 0-31.508-14.178-31.508-31.508 0-6.695 1.969-12.997 5.514-18.117-8.271 5.514-13.391 14.966-13.391 25.994 0 17.329 14.178 31.508 31.508 31.508 10.634 0 20.086-5.514 25.994-13.391-5.12 3.545-11.422 5.514-18.117 5.514z" fill="#d7b354"/>
    <path d="m448.98 461.09h-409.6c-21.662 0-39.385-17.723-39.385-39.385v15.754c0 21.662 17.723 39.385 39.385 39.385h409.6c21.662 0 39.385-17.723 39.385-39.385v-15.754c-1e-3 21.662-17.724 39.385-39.385 39.385z" fill="#b27245"/>
    <path d="m448.98 153.89h-417.48c-17.33 0-31.508-14.179-31.508-31.508v15.754c0 17.329 14.178 31.508 31.508 31.508h417.48c21.662 0 39.385 17.723 39.385 39.385v-15.754c-1e-3 -21.662-17.724-39.385-39.385-39.385z" fill="#ca8b5f"/>
   </g>
   <path d="m362.62 85.62c-0.11528 0-0.21663 0.03184-0.30408 0.09544-0.0874 0.05963-0.16293 0.15693-0.22654 0.29209l-1.5264 3.3451c-0.0755 0.16298-0.0776 0.3002-6e-3 0.4115 0.0716 0.11131 0.19083 0.16691 0.35779 0.16691 0.12323 0 0.21875-0.02974 0.28632-0.08937 0.0676-0.0636 0.13111-0.16494 0.19073-0.30408l0.24445-0.57249h1.9618l0.25051 0.57249c0.0557 0.13516 0.11918 0.23455 0.19074 0.29816 0.0755 0.0636 0.1809 0.09529 0.31605 0.09529 0.15504 0 0.26639-0.05366 0.33397-0.16099 0.0716-0.1113 0.0695-0.25046-6e-3 -0.41742l-1.5383-3.3451c-0.0596-0.13516-0.13317-0.23246-0.22062-0.29209-0.0875-0.0636-0.18895-0.09544-0.30423-0.09544zm2.4091 0c-0.13119 0-0.23268 0.03572-0.30423 0.10728-0.0716 0.07155-0.11116 0.15705-0.11911 0.25643-8e-3 0.09541 0.0158 0.18494 0.0715 0.26842l1.2165 1.7292v1.4668c0 0.15503 0.0398 0.27431 0.11926 0.35779 0.0795 0.08348 0.19474 0.12518 0.34581 0.12518 0.30609 0 0.45914-0.16098 0.45914-0.48297v-1.4609l1.2045-1.7232c0.0716-0.10336 0.1034-0.20275 0.0955-0.29816-4e-3 -0.09938-0.0418-0.18084-0.11334-0.24444-0.0676-0.06758-0.16489-0.10136-0.2921-0.10136-0.0994 0-0.18681 0.02392-0.26234 0.07162-0.0716 0.04373-0.1451 0.11921-0.22063 0.22654l-0.85866 1.2403-0.85866-1.2403c-0.13516-0.19876-0.29613-0.29816-0.48297-0.29816zm4.3349 0c-0.13913 0-0.24645 0.03782-0.32198 0.11335-0.0755 0.07155-0.11334 0.17678-0.11334 0.31591v3.4526c0 0.13516 0.0359 0.24054 0.10743 0.31606 0.0716 0.07553 0.17483 0.11319 0.30999 0.11319 0.27826 0 0.41741-0.14304 0.41741-0.42926v-2.1704l0.97793 1.741c0.0437 0.07553 0.0934 0.13323 0.149 0.17298 0.0557 0.03578 0.12726 0.05371 0.21471 0.05371 0.0875 0 0.15695-0.01794 0.20863-0.05371 0.0557-0.03975 0.10737-0.09745 0.15507-0.17298l0.97793-1.7589v2.1883c0 0.28622 0.1411 0.42926 0.42334 0.42926 0.27827 0 0.41742-0.14304 0.41742-0.42926v-3.4526c0-0.13913-0.0378-0.24436-0.11334-0.31591-0.0716-0.07553-0.17484-0.11335-0.30999-0.11335-0.11529 0-0.20871 0.02392-0.28026 0.07162-0.0676 0.0477-0.13126 0.12512-0.19088 0.23246l-1.2759 2.3315-1.2761-2.3315c-0.0596-0.10733-0.12525-0.18475-0.1968-0.23246-0.0676-0.0477-0.161-0.07162-0.28025-0.07162zm8.7892 0c-0.12322 0-0.22262 0.03976-0.29815 0.11926-0.0715 0.0795-0.10728 0.19474-0.10728 0.3458v3.3988c0 0.29814 0.14304 0.44716 0.42926 0.44716s0.42941-0.14902 0.42941-0.44716v-2.2897l1.9319 2.4626c0.0755 0.0954 0.14519 0.1649 0.20879 0.20863 0.0676 0.04373 0.15696 0.06555 0.26826 0.06555 0.11529 0 0.20676-0.03766 0.27434-0.11319 0.0676-0.0795 0.10136-0.18488 0.10136-0.31606v-3.4406c0-0.29417-0.14319-0.44124-0.42941-0.44124s-0.42926 0.14708-0.42926 0.44124v2.2897l-1.932-2.4626c-0.0755-0.0954-0.1431-0.16296-0.20272-0.20272-0.0596-0.04373-0.14109-0.06555-0.24445-0.06555zm-20.405 0.05371c-0.31404 0-0.47098 0.15694-0.47098 0.47098v3.3095c0 0.15106 0.0398 0.26824 0.11926 0.35172 0.0795 0.08348 0.19475 0.12518 0.34581 0.12518 0.15105 0 0.26435-0.0417 0.33988-0.12518 0.0795-0.08348 0.11926-0.20066 0.11926-0.35172v-1.0913h0.99583c0.46908 0 0.83079-0.11928 1.0852-0.35779 0.25441-0.23851 0.38161-0.56839 0.38161-0.98976s-0.1272-0.74931-0.38161-0.98384c-0.25441-0.23851-0.61612-0.35779-1.0852-0.35779zm16.875 0c-0.32198 0-0.48297 0.16098-0.48297 0.48297v3.2379c0 0.32199 0.16099 0.48297 0.48297 0.48297h2.081c0.2425 0 0.36372-0.12122 0.36372-0.36371 0-0.23851-0.12122-0.35779-0.36372-0.35779h-1.6815v-1.0495h1.5444c0.24646 0 0.36962-0.12122 0.36962-0.36371 0-0.24249-0.12316-0.36371-0.36962-0.36371h-1.5444v-0.98384h1.6815c0.2425 0 0.36372-0.12122 0.36372-0.36371 0-0.23851-0.12122-0.35779-0.36372-0.35779zm7.5608 0c-0.25839 0-0.38753 0.1272-0.38753 0.38161 0 0.25441 0.12914 0.38161 0.38753 0.38161h1.0555v3.0172c0 0.15106 0.0398 0.26824 0.11927 0.35172 0.0795 0.08348 0.19474 0.12518 0.3458 0.12518s0.26436-0.0417 0.33989-0.12518c0.0795-0.08348 0.11926-0.20066 0.11926-0.35172v-3.0172h1.0555c0.25838 0 0.38753-0.1272 0.38753-0.38161 0-0.25441-0.12915-0.38161-0.38753-0.38161zm-23.982 0.7215h0.84076c0.48895 0 0.73333 0.20671 0.73333 0.62014 0 0.42137-0.24438 0.63197-0.73333 0.63197h-0.84076zm4.4065 0.26235h0.0118l0.67385 1.5861h-1.3476zm-3.7088 6.4564c-0.3379-1e-6 -0.63609 0.05575-0.89448 0.16706-0.25441 0.1113-0.45321 0.26825-0.59632 0.47098-0.1431 0.19876-0.21469 0.43133-0.21469 0.69767 0 0.62013 0.37576 1.0098 1.1271 1.1688l0.6737 0.14308c0.21863 0.0477 0.37169 0.10525 0.45914 0.17283 0.0874 0.06758 0.13125 0.15905 0.13125 0.27434 0 0.13516-0.0637 0.24845-0.19088 0.33988-0.12323 0.08746-0.32785 0.13125-0.61407 0.13125-0.19081 0-0.38362-0.02197-0.57841-0.0657-0.19478-0.04373-0.37175-0.11129-0.53076-0.20272-0.12323-0.05963-0.22846-0.06949-0.31591-0.02974-0.0875 0.03975-0.15113 0.10731-0.19088 0.20272-0.0398 0.09541-0.0457 0.1948-0.0179 0.29816 0.0278 0.09938 0.0975 0.1789 0.20879 0.23853 0.18683 0.10733 0.40745 0.18879 0.66186 0.24444 0.25442 0.05565 0.50881 0.08345 0.76322 0.08345 0.34982 0 0.65189-0.05366 0.90631-0.16099 0.25839-0.1113 0.45718-0.26436 0.59631-0.45915 0.14311-0.19876 0.21471-0.42939 0.21471-0.69176 0-0.58833-0.38563-0.96589-1.1568-1.1328l-0.67385-0.14308c-0.20671-0.04373-0.35185-0.10142-0.43533-0.17298-0.0835-0.07155-0.12518-0.16497-0.12518-0.28025 0-0.15503 0.0676-0.28029 0.20272-0.37569 0.13913-0.09938 0.33389-0.149 0.58433-0.149 0.15503 0 0.30614 0.01584 0.45323 0.04764 0.14708 0.0318 0.28623 0.08158 0.41742 0.14915 0.13118 0.0636 0.24044 0.0775 0.32789 0.04173 0.0914-0.03578 0.15511-0.09736 0.19088-0.18481 0.0398-0.08745 0.0477-0.17893 0.0238-0.27433-0.0238-0.0954-0.0854-0.17298-0.18481-0.23261-0.16298-0.10336-0.35192-0.18078-0.56658-0.23246-0.21466-0.05565-0.43318-0.08361-0.65579-0.08361zm7.3401 0c-0.33789-1e-6 -0.63608 0.05575-0.89447 0.16706-0.25442 0.1113-0.45306 0.26825-0.59617 0.47098-0.1431 0.19876-0.2147 0.43133-0.2147 0.69767 0 0.62013 0.37562 1.0098 1.1269 1.1688l0.67385 0.14308c0.21864 0.0477 0.3717 0.10525 0.45915 0.17283 0.0874 0.06758 0.1311 0.15905 0.1311 0.27434 0 0.13516-0.0635 0.24845-0.19073 0.33988-0.12323 0.08746-0.32801 0.13125-0.61422 0.13125-0.19082 0-0.38363-0.02197-0.57842-0.0657-0.19477-0.04373-0.3716-0.11129-0.5306-0.20272-0.12324-0.05963-0.22862-0.06949-0.31607-0.02974-0.0874 0.03975-0.15112 0.10731-0.19088 0.20272-0.0397 0.09541-0.0456 0.1948-0.0177 0.29816 0.0278 0.09938 0.0973 0.1789 0.20863 0.23853 0.18684 0.10733 0.40745 0.18879 0.66186 0.24444 0.25442 0.05565 0.50882 0.08345 0.76323 0.08345 0.34981 0 0.6519-0.05366 0.90631-0.16099 0.25839-0.1113 0.45718-0.26436 0.59631-0.45915 0.14311-0.19876 0.2147-0.42939 0.2147-0.69176 0-0.58833-0.38562-0.96589-1.1568-1.1328l-0.67384-0.14308c-0.20672-0.04373-0.3517-0.10142-0.43518-0.17298-0.0835-0.07155-0.12518-0.16497-0.12518-0.28025 0-0.15503 0.0676-0.28029 0.20272-0.37569 0.13913-0.09938 0.33389-0.149 0.58432-0.149 0.15503 0 0.306 0.01584 0.45308 0.04764s0.28624 0.08158 0.41742 0.14915c0.13118 0.0636 0.2406 0.0775 0.32805 0.04173 0.0914-0.03578 0.15495-0.09736 0.19073-0.18481 0.0397-0.08745 0.0477-0.17893 0.0238-0.27433-0.0239-0.0954-0.0854-0.17298-0.18481-0.23261-0.16298-0.10336-0.35176-0.18078-0.56642-0.23246-0.21466-0.05565-0.43333-0.08361-0.65595-0.08361zm-5.1221 0.01199c-0.13119 0-0.23252 0.03572-0.30408 0.10728-0.0716 0.07155-0.11131 0.15705-0.11926 0.25643-8e-3 0.0954 0.016 0.18494 0.0716 0.26842l1.2164 1.7292v1.4668c0 0.15503 0.0398 0.27431 0.11927 0.35779 0.0795 0.08348 0.19474 0.12518 0.3458 0.12518 0.30609 0 0.45915-0.16098 0.45915-0.48297v-1.4609l1.2045-1.7232c0.0716-0.10336 0.10339-0.20275 0.0954-0.29816-4e-3 -0.09938-0.0418-0.18084-0.11334-0.24444-0.0676-0.06758-0.16503-0.10136-0.29224-0.10136-0.0994 0-0.18682 0.02392-0.26235 0.07162-0.0716 0.04373-0.14509 0.11921-0.22062 0.22654l-0.85866 1.2403-0.85852-1.2403c-0.13515-0.19876-0.29628-0.29816-0.48311-0.29816zm15.056 0c-0.13913 0-0.24645 0.03782-0.32198 0.11334-0.0755 0.07155-0.11334 0.17678-0.11334 0.31591v3.4526c0 0.13516 0.0359 0.24053 0.10742 0.31606 0.0716 0.07553 0.17484 0.11319 0.30999 0.11319 0.27827 0 0.41743-0.14304 0.41743-0.42926v-2.1706l0.97793 1.7411c0.0437 0.07553 0.0933 0.13322 0.14899 0.17298 0.0557 0.03578 0.12726 0.05371 0.21471 0.05371 0.0874 0 0.15696-0.01794 0.20864-0.05371 0.0557-0.03975 0.10736-0.09745 0.15507-0.17298l0.97793-1.7589v2.1883c0 0.28621 0.14109 0.42926 0.42333 0.42926 0.27827 0 0.41742-0.14304 0.41742-0.42926v-3.4526c0-0.13913-0.0378-0.24436-0.11335-0.31591-0.0715-0.07553-0.17483-0.11334-0.30999-0.11334-0.11528 0-0.2087 0.02392-0.28025 0.07162-0.0676 0.0477-0.13125 0.12513-0.19088 0.23246l-1.2759 2.3315-1.2761-2.3315c-0.0596-0.10733-0.12524-0.18475-0.1968-0.23246-0.0676-0.0477-0.16099-0.07162-0.28025-0.07162zm-7.8768 0.05371c-0.25839 0-0.38767 0.1272-0.38767 0.38161s0.12928 0.38161 0.38767 0.38161h1.0553v3.0172c0 0.15106 0.0398 0.26824 0.11925 0.35172 0.0795 0.08348 0.1949 0.12518 0.34596 0.12518s0.26436-0.0417 0.33989-0.12518c0.0795-0.08348 0.11926-0.20066 0.11926-0.35172v-3.0172h1.0553c0.25839 0 0.38768-0.1272 0.38768-0.38161s-0.12929-0.38161-0.38768-0.38161zm4.3052 0c-0.32199 0-0.48297 0.16098-0.48297 0.48297v3.2379c0 0.32199 0.16098 0.48297 0.48297 0.48297h2.081c0.24248 0 0.36371-0.12137 0.36371-0.36386 0-0.23851-0.12123-0.35764-0.36371-0.35764h-1.6815v-1.0495h1.5444c0.24646 0 0.36962-0.12122 0.36962-0.36371 0-0.24249-0.12316-0.36371-0.36962-0.36371h-1.5444v-0.98384h1.6815c0.24248 0 0.36371-0.12122 0.36371-0.36371 0-0.23851-0.12123-0.35779-0.36371-0.35779z" fill="#fff" stroke-width=".26458"/>
  </g>
 </g>
</svg>
