<svg width="100" height="100" version="1.1" viewBox="0 0 26.458 26.458" xmlns="http://www.w3.org/2000/svg">
 <g transform="matrix(1.0001 0 0 1.0001 -.0010104 -.0033356)">
  <path d="m3.7177 0.0033353h19.023c2.059 0 3.7167 1.6576 3.7167 3.7167v19.023c0 2.059-1.6576 3.7167-3.7167 3.7167h-19.023c-2.059 0-3.7167-1.6576-3.7167-3.7167v-19.023c0-2.059 1.6576-3.7167 3.7167-3.7167z" fill="#1890ff" stroke-linecap="round" stroke-width=".26498"/>
  <path d="m13.229 20.874q-2.123 0-3.5242-0.59445-1.4012-0.61568-2.123-1.5922-0.72183-0.9766-0.76429-2.0806 0-0.16984 0.12738-0.29723 0.14862-0.1486 0.33968-0.1486h2.675q0.29722 0 0.44583 0.10619 0.16984 0.10619 0.29722 0.27599 0.16984 0.31846 0.46707 0.61568 0.31844 0.29723 0.82798 0.4883 0.50952 0.16984 1.2314 0.16984 1.2314 0 1.847-0.38214 0.6369-0.38213 0.6369-1.0403 0-0.4883-0.33968-0.78552-0.33968-0.29723-1.104-0.53076-0.74305-0.25476-1.9956-0.50952-1.6134-0.33968-2.7599-0.87043-1.1252-0.55199-1.7196-1.4224-0.59444-0.89167-0.59444-2.2079 0-1.2951 0.72183-2.3141 0.74305-1.019 2.0593-1.5922 1.3163-0.57322 3.1208-0.57322 1.4649 0 2.5689 0.38215 1.1252 0.38215 1.8895 1.019 0.76429 0.63691 1.1464 1.3588 0.40337 0.70059 0.4246 1.38 0 0.16984-0.12738 0.31846-0.10619 0.12738-0.31846 0.12738h-2.8024q-0.23353 0-0.40337-0.08485-0.16984-0.08498-0.29722-0.27599-0.12739-0.46706-0.67938-0.80674-0.53075-0.36092-1.4012-0.36092-0.93412 0-1.4648 0.33968-0.50952 0.31846-0.50952 0.99782 0 0.42461 0.27599 0.74305 0.29722 0.31846 0.95536 0.55199 0.67936 0.23353 1.847 0.4883 1.932 0.36091 3.1208 0.91289 1.1889 0.53076 1.7408 1.4012 0.57321 0.84922 0.57321 2.1443 0 1.4436-0.82797 2.4839-0.82798 1.0403-2.2717 1.6134-1.4224 0.55199-3.312 0.55199z" fill="#fff" stroke-width=".057083"/>
 </g>
</svg>
